<svg width="80" height="95" viewBox="0 0 80 95" fill="none" xmlns="http://www.w3.org/2000/svg">
<path d="M79.1327 15.7894C78.6805 15.3936 78.101 15.1751 77.5005 15.1718H77.177H77.1776C75.5441 15.3818 73.8995 15.4894 72.253 15.4953C53.495 15.4953 42.116 1.08877 42 0.927316L41.9994 0.926659C41.5124 0.324859 40.7741 -0.0170681 40.0004 0.000656645C39.2182 -0.0111562 38.4759 0.349136 38.0015 0.970627C35.6284 3.7755 32.889 6.24772 29.857 8.32092C23.4177 12.9273 15.7228 15.4513 7.80613 15.5538C6.16937 15.5479 4.53453 15.4402 2.91092 15.2302H2.57294C1.95867 15.2361 1.36735 15.4658 0.911248 15.8773C0.383606 16.3197 0.0554554 16.9549 0.000332354 17.6414V47.9397C-0.0383882 57.3179 3.30738 66.3953 9.42316 73.5036C16.6999 81.8974 26.6674 88.7482 39.0444 93.8778C39.6561 94.1331 40.3439 94.1331 40.9555 93.8778C53.3336 88.7622 63.3004 81.9119 70.5768 73.5036C76.6959 66.3902 80.0416 57.3075 79.9996 47.9246V17.6414C79.976 16.9313 79.6623 16.2626 79.1327 15.7895V15.7894ZM74.9869 47.9391C75.0204 56.119 72.1143 64.0382 66.7986 70.2555C60.2274 77.8262 51.216 84.074 39.9999 88.8521C28.7834 84.0744 19.7718 77.8267 13.2011 70.2555C7.88519 64.0385 4.97918 56.1192 5.01278 47.9391V20.4347C5.92435 20.5818 6.82087 20.5818 7.65889 20.5818C24.344 20.5818 35.8101 10.5709 40.0002 6.27816C44.1308 10.5262 55.5973 20.5818 72.3415 20.5818C73.238 20.5818 74.1351 20.5818 75.0467 20.4787L74.9869 47.9391Z" fill="url(#paint0_linear_273_44)"/>
<path d="M23.8223 23.6546C22.8372 23.9925 21.8378 24.3161 20.8086 24.5806L62.4709 66.3C63.0589 65.5794 63.6325 64.8299 64.1758 64.0653C67.431 59.3034 69.1589 53.6634 69.13 47.8947V26.2857C58.3789 25.5073 48.1645 21.2913 39.9926 14.2607C35.2024 18.327 29.7271 21.508 23.822 23.6547L23.8223 23.6546Z" fill="url(#paint1_linear_273_44)"/>
<path d="M12.0682 26.1832L10.9066 26.2862V47.9406C10.8751 54.7067 13.2744 61.2597 17.6688 66.4045C23.8758 73.2942 31.4912 78.7688 39.9986 82.4577C46.2772 79.6705 52.1122 75.9757 57.3151 71.4908C58.0206 70.8732 58.7116 70.2412 59.3587 69.5941L15.5358 25.7578C14.3893 25.9344 13.2284 26.0958 12.0668 26.1837L12.0682 26.1832Z" fill="url(#paint2_linear_273_44)"/>
<defs>
<linearGradient id="paint0_linear_273_44" x1="40" y1="0" x2="40" y2="94.0693" gradientUnits="userSpaceOnUse">
<stop stop-color="#24304F"/>
<stop offset="1" stop-color="#00C2FF"/>
</linearGradient>
<linearGradient id="paint1_linear_273_44" x1="44.9695" y1="14.2607" x2="44.9695" y2="66.3" gradientUnits="userSpaceOnUse">
<stop stop-color="#24304F"/>
<stop offset="1" stop-color="#00C2FF"/>
</linearGradient>
<linearGradient id="paint2_linear_273_44" x1="35.1325" y1="25.7578" x2="35.1325" y2="82.4577" gradientUnits="userSpaceOnUse">
<stop stop-color="#24304F"/>
<stop offset="1" stop-color="#00C2FF"/>
</linearGradient>
</defs>
</svg>
