<svg width="100" height="95" viewBox="0 0 100 95" fill="none" xmlns="http://www.w3.org/2000/svg">
<path fill-rule="evenodd" clip-rule="evenodd" d="M75 0C88.7978 0 100 10.6421 100 23.75V71.25C100 84.3579 88.7978 95 75 95H25C11.2022 95 0 84.3579 0 71.25V23.75C0 10.6421 11.2022 0 25 0H75ZM82.968 75.0752V57.7172L61.7639 55.5965C61.5781 55.5662 61.3868 55.5458 61.1939 55.5405L61.1692 55.5374H60.9085V55.5405C60.6016 55.5503 60.2891 55.5927 59.9798 55.673L46.0528 59.2165C43.8477 59.7777 42.5365 61.9339 43.1279 64.0293C43.7186 66.1242 45.9883 67.3677 48.194 66.808L61.4116 63.4425C61.7313 63.422 62.0334 63.6174 62.1187 63.9226C62.2168 64.2702 62.0007 64.6269 61.6348 64.7201L60.9078 64.9049V64.9102L36.7241 71.0666L13.3465 58.2433C11.3695 57.1596 8.83755 57.8041 7.69674 59.6823C6.55596 61.5604 7.23437 63.9658 9.21141 65.0496L33.6992 78.48C33.7598 78.5126 33.8187 78.5444 33.8793 78.5732C33.908 78.5921 33.9367 78.6088 33.9654 78.6255C34.7865 79.1374 35.8014 79.3752 36.8473 79.226L65.433 75.1561C65.5773 75.1357 65.7208 75.1084 65.8595 75.0744H82.968L82.968 75.0752ZM92.8571 75.0752V57.7172H90.452V75.0752H92.8571ZM89.5608 75.0752V57.7172H83.8592V75.0752H89.5608ZM55.769 53.3125C60.3169 53.3109 64.0104 49.8023 64.0104 45.4815V29.8221C64.0104 25.5015 60.3178 21.9927 55.769 21.9927H19.5037C14.9557 21.9927 11.2622 25.5007 11.2622 29.8221V45.4815C11.2622 49.8021 14.9549 53.3125 19.5037 53.3125H55.769ZM40.9333 28.2557V34.5203H47.5261V40.7835H40.9333V47.0467H34.3404V40.7835H27.7461V34.5203H34.3404V28.2557H40.9333ZM50.8241 21.2087V18.3701C50.8241 16.9115 49.5773 15.7285 48.0418 15.7285H27.2296C25.6942 15.7285 24.449 16.9107 24.449 18.3701V21.2087H27.7453V20.7187C27.7453 20.0181 28.0403 19.3464 28.5616 18.8511C29.083 18.3558 29.7901 18.0778 30.5275 18.0778H44.7455C45.4829 18.0778 46.19 18.3558 46.7113 18.8511C47.2327 19.3464 47.5253 20.0181 47.5253 20.7187V21.2087H50.8241Z" fill="url(#paint0_linear_158_674)"/>
<defs>
<linearGradient id="paint0_linear_158_674" x1="50" y1="0" x2="50" y2="95" gradientUnits="userSpaceOnUse">
<stop stop-color="#FB9100"/>
<stop offset="1" stop-color="#F00000" stop-opacity="0.53"/>
</linearGradient>
</defs>
</svg>
