<svg width="123" height="123" viewBox="0 0 123 123" fill="none" xmlns="http://www.w3.org/2000/svg">
<circle cx="61.5" cy="61.5" r="61.5" fill="white"/>
<path d="M98 67.4024V65.3684C98 64.0037 97.458 62.6944 96.4925 61.7294C95.5275 60.7645 94.2182 60.2219 92.8535 60.2219H89.1333V52.05C89.1333 51.7212 89.0026 51.4056 88.7701 51.1731C88.5376 50.9406 88.222 50.81 87.8932 50.81H86.492V48.4039C86.4886 47.0697 85.9583 45.7903 85.016 44.8447L82.5359 42.3646C82.0498 41.8785 81.2614 41.8785 80.7748 42.3646C80.2887 42.8512 80.2887 43.6395 80.7748 44.1256L83.255 46.6058C83.735 47.0869 84.0068 47.7374 84.0118 48.4166V50.8227L82.5486 50.8222C81.8632 50.8222 81.3085 51.3774 81.3085 52.0622V60.2347H75.48C74.5317 60.2402 73.6039 60.5109 72.8012 61.0158L70.321 58.5356L72.4663 56.3903C72.9473 55.9065 72.9473 55.1253 72.4663 54.6415C72.2337 54.4067 71.9165 54.275 71.586 54.275C71.2555 54.275 70.9383 54.4067 70.7058 54.6415L64.6786 60.6686C64.1981 61.1519 64.1981 61.9336 64.6786 62.4169C64.9117 62.6516 65.2284 62.784 65.5594 62.784C65.8899 62.784 66.2066 62.6516 66.4397 62.4169L68.5728 60.2838L71.053 62.764C70.5846 63.5479 70.3366 64.4432 70.3338 65.356V66.1621H64.5176C62.7067 62.1124 59.7786 58.6628 56.0771 56.2186C52.3751 53.7739 48.0531 52.4359 43.6175 52.3605C39.182 52.2857 34.8172 53.4771 31.035 55.795C29.6416 56.6592 28.7259 58.1196 28.5548 59.7506C28.355 61.4092 28.9263 63.0684 30.105 64.252L30.353 64.4879C27.0248 68.2099 25.4896 73.2007 26.1506 78.1495C26.8111 83.0988 29.6019 87.5117 33.7893 90.2304C37.9774 92.9493 43.1443 93.7015 47.9336 92.2904C52.7229 90.8798 56.6564 87.4456 58.7015 82.8912H74.2402C74.2402 86.4354 76.1308 89.7106 79.2006 91.4827C82.2698 93.2548 86.0516 93.2548 89.1213 91.4827C92.1905 89.7106 94.0817 86.4354 94.0817 82.8912V82.7672C95.1956 82.4992 96.1866 81.8642 96.8952 80.9646C97.6038 80.0644 97.9886 78.9522 97.9881 77.8068V67.4022L98 67.4024ZM83.7892 53.2903H86.7156V60.2226L83.7892 60.2221V53.2903ZM92.8541 62.7028V62.7023C93.56 62.7056 94.2365 62.9879 94.7358 63.4867C95.2351 63.9861 95.5169 64.6626 95.5203 65.3684V68.6425H72.8273V65.3684C72.8273 64.6637 73.1063 63.9871 73.604 63.4877C74.1011 62.9878 74.776 62.7055 75.4813 62.7021L92.8541 62.7028ZM30.9231 60.0361C31.0266 59.157 31.5238 58.372 32.275 57.9036C37.9844 54.3909 45.0347 53.8368 51.2237 56.4138C57.4119 58.9909 61.9848 64.3852 63.5139 70.9122C63.6999 71.7499 63.4945 72.6263 62.9559 73.2934C62.3851 74.0125 61.5177 74.4327 60.5997 74.4344H60.252C59.9547 70.191 58.0846 66.2115 55.0071 63.2746C51.9301 60.3377 47.8671 58.6553 43.6148 58.5562C39.3619 58.4576 35.2259 59.9496 32.0154 62.7403L31.7796 62.4425C31.149 61.8091 30.8351 60.9262 30.9237 60.0364L30.9231 60.0361ZM43.2 90.3072V90.3077C39.3148 90.311 35.5867 88.7697 32.8375 86.0238C30.0888 83.2779 28.5437 79.5521 28.5425 75.6662C28.5414 71.7804 30.0844 68.0535 32.832 65.3059C35.5796 62.5582 39.3066 61.0154 43.1918 61.0164C47.0776 61.0175 50.8034 62.5626 53.5499 65.312C56.2958 68.0611 57.8365 71.7886 57.8333 75.6745C57.8272 79.5531 56.2831 83.2716 53.5406 86.0143C50.7975 88.757 47.0793 90.3009 43.2002 90.3076L43.2 90.3072ZM84.1231 90.3072V90.3077C82.15 90.3077 80.2573 89.5238 78.8622 88.1281C77.4665 86.733 76.6826 84.8402 76.6826 82.8672C76.6826 80.8935 77.4665 79.0013 78.8622 77.6056C80.2573 76.2105 82.15 75.4266 84.1231 75.4266C86.0968 75.4266 87.989 76.2105 89.3847 77.6056C90.7798 79.0013 91.5637 80.8935 91.5637 82.8672C91.5637 84.8319 90.787 86.717 89.4024 88.111C88.0178 89.505 86.1378 90.2944 84.173 90.3077L84.1231 90.3072ZM93.684 80.2624L93.6846 80.263C92.9068 77.4323 90.9149 75.0911 88.2453 73.8699C85.5758 72.6492 82.5022 72.673 79.852 73.9352C77.2018 75.198 75.2465 77.5692 74.5123 80.4119H59.6312C59.9584 79.2703 60.166 78.0984 60.2512 76.9147H60.5989C62.2752 76.9219 63.8618 76.1585 64.9015 74.8437C65.9157 73.5847 66.2911 71.9278 65.9185 70.3544C65.7823 69.7842 65.6207 69.2134 65.4474 68.6554H70.4078V69.8955C70.4078 70.2243 70.5384 70.5399 70.771 70.7724C71.0035 71.0049 71.319 71.1356 71.6479 71.1356H95.52V77.882C95.5029 78.414 95.3224 78.9283 95.003 79.3546C94.6835 79.7804 94.2406 80.0976 93.7341 80.2631L93.684 80.2624ZM84.173 78.564C83.0243 78.5606 81.9214 79.0141 81.1077 79.8245C80.2933 80.6345 79.8349 81.735 79.8327 82.8838C79.8305 84.032 80.285 85.1343 81.096 85.9481C81.9071 86.7613 83.0076 87.2186 84.1564 87.2197C85.3052 87.2208 86.4069 86.7652 87.2195 85.9536C88.0322 85.142 88.4884 84.0403 88.4884 82.8921C88.4884 81.7461 88.0345 80.6471 87.2251 79.8362C86.4162 79.0246 85.3184 78.5673 84.173 78.564ZM84.173 84.7644C83.4245 84.7694 82.747 84.3227 82.4574 83.6323C82.1673 82.9425 82.3224 82.1459 82.8499 81.6144C83.377 81.0835 84.1731 80.9235 84.8651 81.2086C85.5572 81.4937 86.0083 82.168 86.0083 82.9165C86.0083 83.9324 85.189 84.7578 84.1731 84.7645L84.173 84.7644ZM43.2499 65.803C40.6186 65.803 38.0952 66.8483 36.2351 68.709C34.3744 70.5697 33.3292 73.0931 33.3292 75.7238C33.3292 78.3551 34.3744 80.8785 36.2351 82.7392C38.0952 84.5993 40.6186 85.6446 43.2499 85.6446C45.8812 85.6446 48.4046 84.5993 50.2647 82.7392C52.1254 80.8785 53.1707 78.3551 53.1707 75.7238C53.184 73.0758 52.1376 70.532 50.2653 68.6591C48.3924 66.7868 45.8486 65.7404 43.2 65.7537L43.2499 65.803ZM43.2499 83.1644C41.2763 83.1644 39.3841 82.3805 37.9884 80.9853C36.5933 79.5897 35.8093 77.6975 35.8093 75.7238C35.8093 73.7507 36.5933 71.858 37.9884 70.4628C39.384 69.0672 41.2763 68.2832 43.2499 68.2832C45.2236 68.2832 47.1157 69.0671 48.5115 70.4628C49.9066 71.8579 50.6905 73.7507 50.6905 75.7238C50.6772 77.6975 49.8811 79.5847 48.476 80.9709C47.0715 82.3566 45.1737 83.1284 43.2 83.115L43.2499 83.1644ZM47.5653 75.7238C47.5653 77.2744 46.7382 78.7078 45.3952 79.4828C44.0521 80.2584 42.398 80.2584 41.0549 79.4828C39.7118 78.7077 38.8848 77.2744 38.8848 75.7238C38.8848 75.039 39.4401 74.4837 40.1249 74.4837C40.8097 74.4837 41.365 75.039 41.365 75.7238C41.365 76.4712 41.8151 77.1449 42.506 77.4312C43.1963 77.7174 43.9908 77.559 44.5195 77.0303C45.0476 76.5022 45.2059 75.7072 44.9197 75.0169C44.6341 74.3265 43.9603 73.8764 43.2129 73.8764C42.5281 73.8764 41.9728 73.3211 41.9728 72.6363C41.9728 71.9515 42.5281 71.3962 43.2129 71.3962C44.3478 71.4023 45.4352 71.8546 46.2395 72.6546C47.0444 73.4551 47.5028 74.5397 47.5161 75.6746L47.5653 75.7238Z" fill="#063100"/>
</svg>
