<svg width="123" height="123" viewBox="0 0 123 123" fill="none" xmlns="http://www.w3.org/2000/svg">
<circle cx="61.5" cy="61.5" r="61.5" fill="white"/>
<path d="M92.9997 88.925H84.7613C86.7969 87.9556 88.5415 86.5989 89.898 84.951C95.5195 78.1663 90.9642 69.0559 89.4133 66.4392C87.7658 63.5313 85.6331 60.9144 83.5981 58.2974C82.0473 56.359 80.3997 54.3235 79.0427 52.1913L77.7828 52.9665C79.2366 55.1958 80.8845 57.2309 82.4353 59.1694C84.4709 61.6891 86.506 64.3061 88.1539 67.1169C89.6076 69.5401 93.7754 77.9723 88.7353 83.9818C86.7969 86.3078 83.9861 87.9557 80.3997 88.8281H77.6856C78.0732 88.4405 78.558 87.9558 78.9455 87.5682C85.1484 80.1049 80.1088 70.0249 78.4608 67.1168C76.6191 63.9184 74.293 61.0107 72.0637 58.1028C70.0282 55.583 67.993 52.8689 66.2485 50.0581L64.9886 50.8333C66.7332 53.7412 68.8655 56.4548 70.901 58.975C73.1303 61.7857 75.3593 64.5965 77.201 67.7948C78.7519 70.5089 83.404 79.8132 77.8796 86.5981C77.201 87.3732 76.4258 88.1489 75.5535 88.8274L48.9 88.8287C46.0893 86.8903 42.8909 83.4981 42.6 77.9733C42.3091 71.3824 45.9921 66.6333 49.8694 61.5933C52.3892 58.2979 55.1033 54.9058 56.557 50.8351L55.2 50.3503C53.7463 54.1306 51.226 57.5227 48.7062 60.721C44.8293 65.7612 40.8553 70.8979 41.1463 78.0697C41.3401 82.3341 43.1819 86.0172 46.5739 88.925H43.8599C36.6876 87.0837 32.2296 82.4316 31.9383 76.4218C31.6473 70.5093 34.9428 66.3415 38.4321 61.8834C40.5643 59.0727 42.7937 56.1648 44.1507 52.8693L42.7937 52.2879C41.5338 55.4863 39.3044 58.297 37.269 61.0111C33.7797 65.4693 30.1937 70.1218 30.4842 76.5192C30.7751 81.8498 34.0701 86.3085 39.4012 88.9257H30V90.3794H93L92.9997 88.925Z" fill="#063100"/>
<path d="M64.3083 67.8928C64.9869 68.4742 65.4716 69.3466 65.4716 70.2189H66.9253C66.9253 68.959 66.3439 67.6991 65.2778 66.8268C64.4054 66.1483 63.3394 65.6635 62.2732 65.5669V61.981H60.8195V65.5669C59.6562 65.664 58.5902 66.1483 57.7179 66.8268C56.6518 67.6991 56.0703 68.959 56.0703 70.2189C56.0703 71.4788 56.6517 72.7387 57.7179 73.611C58.784 74.4833 60.0439 74.968 61.4981 74.968C62.5642 74.968 63.5337 75.3556 64.3088 75.9374C64.9873 76.5188 65.472 77.3911 65.472 78.2635C65.472 79.1358 65.0845 79.911 64.3088 80.5895C62.8551 81.8494 60.141 81.8494 58.6873 80.5895C58.0088 80.0081 57.524 79.1358 57.524 78.2635H56.0703C56.0703 79.5233 56.6517 80.7832 57.7179 81.6556C58.5902 82.3341 59.6562 82.8188 60.8195 82.9154V86.5014H62.2732V82.9154C63.4365 82.8183 64.5025 82.334 65.2778 81.6556C66.3439 80.7832 66.9253 79.5233 66.9253 78.2635C66.9253 77.0036 66.3439 75.7437 65.2778 74.8714C64.3083 73.999 62.9517 73.5144 61.4975 73.5144C60.4314 73.5144 59.462 73.1268 58.6868 72.5449C58.0083 71.9635 57.5236 71.0912 57.5236 70.2189C57.5236 69.3466 57.9112 68.5713 58.6868 67.8928C60.1406 66.6329 62.8546 66.6329 64.3083 67.8928Z" fill="#063100"/>
<path d="M66.5397 47.4426C66.5397 46.2793 65.6674 45.407 64.5041 45.407H56.7504C55.5872 45.407 54.7148 46.2793 54.7148 47.4426C54.7148 48.6058 55.5872 49.4781 56.7504 49.4781H64.5041C65.6674 49.4777 66.5397 48.6054 66.5397 47.4426ZM64.5041 48.024H56.7504C56.4595 48.024 56.169 47.733 56.169 47.4426C56.169 47.1516 56.4599 46.8612 56.7504 46.8612H64.5041C64.795 46.8612 65.0855 47.1521 65.0855 47.4426C65.0855 47.8302 64.8917 48.024 64.5041 48.024Z" fill="#063100"/>
<path d="M69.8325 47.1514C68.6692 47.1514 67.7969 48.0237 67.7969 49.1869C67.7969 50.3502 68.6692 51.2225 69.8325 51.2225H77.5862C78.7494 51.2225 79.6218 50.3502 79.6218 49.1869C79.6218 48.0237 78.7495 47.1514 77.5862 47.1514H69.8325ZM78.1676 49.1869C78.1676 49.4779 77.8767 49.7683 77.5862 49.7683H69.8325C69.5415 49.7683 69.2511 49.4774 69.2511 49.1869C69.2511 48.896 69.542 48.6055 69.8325 48.6055H77.5862C77.8771 48.7022 78.1676 48.896 78.1676 49.1869Z" fill="#063100"/>
<path d="M51.3245 47.1514H43.5707C42.4075 47.1514 41.5352 48.0237 41.5352 49.1869C41.5352 50.3502 42.4075 51.2225 43.5707 51.2225H51.3245C52.4877 51.2225 53.36 50.3502 53.36 49.1869C53.3596 48.1204 52.3906 47.1514 51.3245 47.1514ZM51.3245 49.7683H43.5707C43.2798 49.7683 42.9893 49.4774 42.9893 49.1869C42.9893 48.896 43.2802 48.6055 43.5707 48.6055H51.3245C51.6154 48.6055 51.9059 48.8965 51.9059 49.1869C51.8092 49.4774 51.6154 49.7683 51.3245 49.7683Z" fill="#063100"/>
<path d="M43.0844 45.5999L44.5381 45.2123C44.2472 44.0491 43.472 42.8863 42.7935 41.723C42.2121 40.8507 41.2427 39.2999 41.5336 38.9123C41.9212 38.7185 42.4059 39.0094 42.9873 39.397C43.3749 39.6879 43.8596 39.9784 44.2472 39.9784C45.4105 40.0756 46.089 39.397 46.5733 38.9123C47.058 38.4276 47.2518 38.3309 47.5427 38.4276C47.6398 38.5247 47.6398 38.6214 47.7365 38.6214C48.0274 39.009 48.3179 39.4937 48.8998 39.6875C50.5473 40.2689 51.7105 39.2999 52.68 38.5243C52.8738 38.9119 53.1647 39.3966 53.4552 39.8812V39.9784C52.2919 41.723 51.5168 43.9523 51.2259 46.2784L52.6796 46.4722C52.9705 44.6304 53.4548 42.8862 54.3272 41.4321C54.9086 42.4982 55.3933 43.4676 55.2966 44.2428L56.7503 44.4366C56.9441 42.8857 55.7809 40.9473 54.7147 39.2027C54.0367 38.0399 53.0676 36.4891 53.2615 36.0043C53.2615 36.0043 53.2615 35.9072 53.3586 35.9072C53.8433 35.7134 54.328 36.0043 55.1032 36.4886C55.588 36.7795 55.9756 37.07 56.4602 37.1671C57.7201 37.2643 58.3986 36.5857 58.98 36.0039C59.5614 35.5192 59.7552 35.3254 60.1432 35.4225C60.2404 35.5196 60.337 35.6163 60.337 35.7134C60.628 36.101 61.0156 36.5857 61.5969 36.8767C63.3416 37.4581 64.6986 36.4891 65.7647 35.6168C66.4432 35.132 67.0246 34.6473 67.7031 34.6473C68.2845 34.6473 68.4783 34.7444 68.4783 34.7444C68.4783 35.0354 67.7998 35.9077 67.606 36.2953L67.3151 36.6829C65.7642 38.8151 64.7953 41.5291 64.4072 44.4366L65.8609 44.6304C65.958 43.661 66.2485 42.7886 66.5394 41.8197C66.6365 41.9168 66.6365 42.0135 66.7332 42.2073C67.5084 43.4672 68.4778 45.1152 68.3808 46.0841L69.8345 46.2779C70.0283 44.8242 68.9622 43.0796 67.9927 41.4317C67.7018 40.947 67.4113 40.4622 67.2176 40.0747C67.4114 39.6871 67.6052 39.2024 67.799 38.8148C67.8961 38.9119 68.0899 39.0086 68.1866 39.1057C68.5742 39.3966 69.0589 39.6871 69.4464 39.6871C70.6097 39.7842 71.2882 39.1057 71.7725 38.621C72.2572 38.1363 72.451 38.0396 72.7419 38.0396C72.839 38.1367 72.839 38.2334 72.9357 38.3305C73.2266 38.7181 73.6142 39.2028 74.099 39.3966C75.7465 39.978 76.9097 39.009 77.8792 38.2334C78.4606 37.7487 79.0424 37.3611 79.5268 37.3611C79.9144 37.3611 80.0115 37.3611 80.1082 37.4582C80.011 37.7491 79.5268 38.4276 79.333 38.7181L79.4305 38.7185C78.0736 40.6569 77.1045 43.0801 76.8136 45.697L78.2673 45.8908C78.5582 43.5648 79.4305 41.2384 80.6904 39.5908L80.8842 39.2999C81.5627 38.4276 82.3379 37.3615 81.8537 36.4892C81.4661 35.6169 80.2061 35.6169 79.9153 35.6169C78.9459 35.6169 78.0735 36.1983 77.3955 36.7801C76.4261 37.5553 75.7479 37.9434 74.9724 37.6524C74.8753 37.6524 74.5848 37.2649 74.4877 37.1677C74.2938 36.8768 74.0029 36.5863 73.6153 36.3925C72.4521 36.0049 71.677 36.6835 71.0956 37.2649C70.5142 37.7491 70.2232 37.9429 69.7386 37.9429C69.6415 37.9429 69.351 37.7491 69.1572 37.5553C69.0601 37.4582 68.8663 37.3615 68.6725 37.2644L68.8663 36.9739C69.5448 36.1016 70.4171 34.9384 69.9324 33.8723C69.4477 33 68.2848 33 67.8002 33C66.7341 33 65.8618 33.6785 64.9895 34.357C63.9234 35.2293 63.1477 35.7139 62.2754 35.3264C62.1783 35.2293 61.8878 34.9388 61.694 34.745C61.4031 34.3574 61.2093 34.0665 60.8217 33.9698C59.5618 33.5822 58.6895 34.3574 58.1076 34.8421C57.5262 35.3268 57.2353 35.6173 56.6539 35.6173C56.5568 35.6173 56.1692 35.3264 55.9754 35.2297C55.2002 34.745 54.037 33.9698 52.777 34.5512C52.1956 34.8421 51.9047 35.2297 51.8076 35.6173C51.6138 36.1021 51.7105 36.6835 52.0014 37.362C51.9043 37.4591 51.8076 37.4591 51.8076 37.5558C50.8382 38.331 50.2568 38.719 49.3845 38.4281C49.2873 38.4281 48.9969 38.0405 48.8997 37.9434C48.7059 37.6525 48.415 37.362 48.0274 37.1682C46.8642 36.7806 46.0891 37.4591 45.5077 37.9434C45.0229 38.4281 44.7325 38.6219 44.2478 38.6219C44.1506 38.6219 43.8602 38.4281 43.6664 38.2343C42.9879 37.7496 41.9217 37.071 40.7585 37.6529C40.1771 37.9438 39.9833 38.3314 39.8862 38.6223C39.5952 39.6885 40.3709 41.0455 41.3399 42.5963C42.1155 43.5644 42.7941 44.631 43.085 45.5999L43.0844 45.5999Z" fill="#063100"/>
</svg>
