<svg width="123" height="123" viewBox="0 0 123 123" fill="none" xmlns="http://www.w3.org/2000/svg">
<circle cx="61.5" cy="61.5" r="61.5" fill="white"/>
<path d="M72.0611 67.0626C70.5915 66.1668 69.0238 65.481 67.3861 64.9631C70.3536 61.5477 72.2431 56.3548 72.2431 52.4636C72.2431 46.1369 67.0922 41 60.7795 41C54.4668 41 49.3158 46.1509 49.3158 52.4636C49.3158 56.3689 51.2614 61.5338 54.2289 64.949C52.5772 65.4669 50.9815 66.1808 49.4978 67.0766C42.9192 71.0797 39 78.0643 39 85.7351V90.2982H82.5725V85.7071C82.5585 78.0366 78.6394 71.0656 72.0606 67.0626H72.0611ZM58.7493 68.1544C59.4072 68.3643 60.0791 68.5043 60.7649 68.5043C62.4585 68.5043 64.0262 67.8465 65.4399 66.7827C66.9656 67.1606 68.4352 67.7205 69.8209 68.4484L60.7648 82.459L51.7226 68.4484C53.1224 67.7206 54.5921 67.1466 56.1317 66.7827C56.9855 67.4266 57.8673 67.8745 58.7492 68.1544L58.7493 68.1544ZM60.7788 43.2814C65.8317 43.2814 69.947 47.3965 69.947 52.4496C69.947 56.1728 67.7355 61.6178 64.6841 64.4031L64.3901 64.6551C61.9406 66.7267 59.5891 66.7267 57.1397 64.6551L56.8457 64.4031C53.7943 61.6037 51.5967 56.1588 51.5967 52.4496C51.5967 47.3967 55.7119 43.2814 60.7789 43.2814H60.7788ZM80.2769 88.0018H41.2807V85.7063C41.2807 79.2116 44.4301 73.2768 49.749 69.6238L60.7788 86.6725L71.8086 69.6238C77.1275 73.291 80.2769 79.2118 80.2769 85.7063V88.0018Z" fill="#063100"/>
<path d="M68.8008 84.5591H75.6873V86.8547H68.8008V84.5591Z" fill="#063100"/>
<path d="M73.7919 72.2977C73.9203 72.5473 74.1699 72.6901 74.4268 72.6901C74.5337 72.6901 74.648 72.6614 74.7478 72.6115C77.9372 70.9846 80.7558 68.9368 83.2751 66.6534C84.6736 67.6951 86.3433 68.2517 88.0843 68.2517C88.3128 68.2517 88.5481 68.2445 88.7766 68.223C90.9387 68.0376 92.9079 67.0243 94.3279 65.3618C94.5847 65.0619 94.5492 64.6125 94.2494 64.3557C92.2443 62.6501 89.6614 62.0723 87.2637 62.5648C88.1485 61.5372 88.9832 60.4883 89.7684 59.418C90.853 59.9887 92.0159 60.2742 93.1719 60.2742C95.705 60.2742 98.1881 58.9755 99.5866 56.6282C99.7864 56.2928 99.6795 55.8505 99.337 55.6508C97.6246 54.6303 95.6195 54.3308 93.6856 54.8158C93.3287 54.9015 92.9862 55.0227 92.6508 55.1583C93.343 54.031 93.9779 52.9176 94.5701 51.8118C95.3764 52.1257 96.2254 52.2899 97.0748 52.2899C97.8097 52.2899 98.5447 52.1687 99.2653 51.9331C101.035 51.348 102.476 50.1063 103.325 48.4295C103.503 48.0798 103.361 47.6518 103.011 47.4732C100.964 46.4316 98.6516 46.503 96.7322 47.4305C96.8391 47.188 96.9535 46.9452 97.0604 46.7028C97.9665 46.2103 98.7373 45.5467 99.3509 44.7049C100.914 42.5571 101.135 39.76 99.9216 37.391C99.7433 37.0413 99.3151 36.8985 98.9654 37.0771C97.2957 37.9261 96.0471 39.3819 95.4618 41.1657C94.9123 42.8354 95.0123 44.6119 95.7258 46.2034C95.6472 46.3889 95.5615 46.5743 95.4761 46.7601C95.4191 46.4534 95.3477 46.1464 95.2477 45.8397C94.6698 44.0559 93.4352 42.6073 91.7655 41.7582C91.4158 41.5799 90.9879 41.7227 90.8093 42.0721C89.9603 43.7417 89.8175 45.6471 90.4097 47.4451C90.9234 49.0007 91.9367 50.2992 93.2925 51.1697C92.6931 52.2899 92.0367 53.4244 91.3373 54.5589C91.159 52.2328 89.9101 50.0209 87.7623 48.7364C87.4269 48.5366 86.9846 48.6436 86.7849 48.9861C84.8512 52.2185 85.6859 56.3427 88.5614 58.648C87.6482 59.8754 86.6705 61.0884 85.6145 62.2585C85.7286 61.5949 85.7716 60.917 85.7145 60.2319C85.5503 58.0558 84.5373 56.0791 82.8817 54.6662C82.5818 54.4094 82.1324 54.445 81.8756 54.7448C80.4627 56.4073 79.7777 58.5264 79.9634 60.7172C80.1205 62.6081 80.9052 64.342 82.1897 65.6978C79.7923 67.8599 77.1093 69.7936 74.0913 71.3277C73.7565 71.5203 73.6137 71.9483 73.7923 72.298L73.7919 72.2977ZM94.0353 56.2078C95.3553 55.8796 96.7111 55.9937 97.9385 56.536C96.2401 58.7122 93.2576 59.4615 90.753 58.3342C91.5736 57.2853 92.7154 56.536 94.0354 56.2079L94.0353 56.2078ZM91.7734 47.0031C91.381 45.8188 91.3882 44.577 91.7877 43.4353C92.7866 44.1276 93.5216 45.1193 93.8997 46.2894C94.2778 47.4598 94.2637 48.694 93.8642 49.8428C92.8864 49.1437 92.1586 48.1592 91.7734 47.0031L91.7734 47.0031ZM92.7225 64.9913C91.6094 66.0401 90.1894 66.6824 88.6554 66.8109C87.1141 66.9393 85.6086 66.5397 84.3454 65.6763C84.4882 65.5336 84.6309 65.3908 84.7737 65.2481C87.057 63.4643 90.282 63.3359 92.7223 64.9913H92.7225ZM98.0952 48.4228C99.2724 48.0448 100.521 48.0588 101.67 48.4584C100.978 49.4645 99.9933 50.2066 98.8233 50.5918C97.6461 50.9842 96.3972 50.9627 95.2414 50.5491C95.2558 50.5204 95.2701 50.4921 95.2841 50.4634C95.9761 49.5075 96.9466 48.794 98.0952 48.4228L98.0952 48.4228ZM96.8322 41.6229C97.2175 40.4457 97.9668 39.4467 98.9729 38.7545C99.5794 40.474 99.3154 42.3793 98.2164 43.8776C97.8383 44.3913 97.3958 44.8267 96.8606 45.1904C96.4542 44.0419 96.4399 42.8001 96.8323 41.6229H96.8322ZM87.3638 54.2954C87.0213 52.9754 87.1353 51.6196 87.6636 50.3994C88.7125 51.22 89.4546 52.3545 89.7756 53.6602C90.0823 54.8804 89.9897 56.1362 89.5471 57.285C89.4973 57.3564 89.4543 57.4206 89.4044 57.492C88.4126 56.6788 87.692 55.5727 87.3638 54.2954H87.3638ZM81.3986 60.6104C81.2702 59.0548 81.6626 57.5494 82.5116 56.2864C83.5533 57.3995 84.1813 58.8195 84.3026 60.3535C84.4238 61.8876 84.0171 63.3934 83.1608 64.6563C82.1479 63.543 81.527 62.1373 81.3986 60.6103V60.6104Z" fill="#063100"/>
</svg>
