<svg width="123" height="123" viewBox="0 0 123 123" fill="none" xmlns="http://www.w3.org/2000/svg">
<circle cx="61.5" cy="61.5" r="61.5" fill="white"/>
<path d="M84.0373 84.1111H75.709V80.9384H76.2543C78.5843 80.9384 80.7657 80.0462 82.4511 78.3604C84.4837 76.3278 85.3759 73.4525 84.8803 70.6269C84.8309 70.2303 84.4837 69.9329 84.1369 69.8835C83.641 69.7842 83.0956 69.7348 82.6001 69.7348C80.2702 69.7348 78.0888 70.6269 76.4034 72.3127C76.1554 72.5607 75.9573 72.8086 75.7093 73.0562L75.709 66.2149H76.2543C78.5843 66.2149 80.7657 65.3227 82.4511 63.6369C84.4837 61.6043 85.3759 58.729 84.8803 55.9034C84.8309 55.5068 84.4837 55.2094 84.1369 55.1599C83.641 55.0607 83.0956 55.0112 82.6002 55.0112C80.2702 55.0112 78.0888 55.9034 76.4034 57.5892C76.1554 57.8371 75.9573 58.0851 75.7094 58.3327L75.709 53.1273C77.7911 51.4913 79.0305 48.9133 79.0305 46.2364C79.0305 43.3611 77.6424 40.6842 75.2629 39.0483C74.9157 38.8003 74.5195 38.8003 74.1723 39.0483C71.8423 40.6842 70.4047 43.3611 70.4047 46.2364C70.4047 48.9133 71.6441 51.4418 73.7262 53.1273V58.3821C73.5281 58.1341 73.2801 57.8862 73.0322 57.6386C71.3962 56.0026 69.1654 55.0606 66.8354 55.0606C66.3395 55.0606 65.7942 55.1101 65.2987 55.2093C64.902 55.2588 64.6047 55.606 64.5552 55.9528C64.0593 58.7787 64.9519 61.6537 66.9844 63.6863C68.6204 65.3223 70.8512 66.2643 73.1812 66.2643H73.7266V73.1551C73.5284 72.9071 73.2805 72.6592 73.0325 72.4116C71.3966 70.7757 69.1657 69.8337 66.8358 69.8337C66.3399 69.8337 65.7945 69.8831 65.299 69.9823C64.9024 70.0318 64.605 70.379 64.5556 70.7258C64.0597 73.5517 64.9522 76.4267 66.9848 78.4593C68.6207 80.0953 70.8516 81.0373 73.1816 81.0373H73.7269V84.21L49.2363 84.2104V80.5915C49.4345 80.5915 49.5835 80.641 49.7817 80.641C52.1117 80.641 54.293 79.7488 55.9785 78.063C58.0111 76.0304 58.9032 73.1551 58.4077 70.3295C58.3582 69.9329 58.011 69.6355 57.6642 69.5861C57.1185 69.3876 56.6226 69.3876 56.0773 69.3876C53.7473 69.3876 51.566 70.2797 49.8805 71.9655C49.6326 72.2135 49.4344 72.4614 49.1865 72.709V67.4047C51.2686 65.7688 52.508 63.2406 52.508 60.5139C52.508 57.6386 51.1199 54.9617 48.7404 53.3257C48.3932 53.0778 47.9969 53.0778 47.6498 53.3257C45.3198 54.9617 43.8822 57.6386 43.8822 60.5139C43.8822 63.1907 45.1216 65.7193 47.2037 67.4047V72.6595C47.0056 72.4116 46.7576 72.1636 46.5097 71.916C45.0224 70.2801 42.8411 69.3876 40.511 69.3876C40.0151 69.3876 39.4698 69.437 38.9743 69.5363C38.5777 69.5857 38.2803 69.9329 38.2308 70.2797C37.7349 73.1057 38.6275 75.9806 40.6601 78.0132C42.296 79.6492 44.5268 80.5912 46.8568 80.5912C47.055 80.5912 47.204 80.5912 47.4022 80.5417V84.1606L39.024 84.1609C38.5281 84.1609 38.082 84.607 38.082 85.1029C38.082 85.5988 38.5281 86.0449 39.024 86.0449H84.0871C84.5829 86.0449 85.0291 85.5988 85.0291 85.1029C84.9793 84.5078 84.5826 84.1112 84.0373 84.1112L84.0373 84.1111ZM77.6918 73.7005C79.1293 72.2631 81.0627 71.569 83.0953 71.7178C83.244 73.7005 82.55 75.6838 81.1125 77.1213C79.675 78.5587 77.7416 79.2528 75.709 79.1041C75.5603 77.0714 76.3038 75.0886 77.6918 73.7005ZM77.6918 58.9274C79.1293 57.4899 81.0627 56.7959 83.0953 56.9446C83.244 58.9274 82.55 60.9106 81.1125 62.3481C79.675 63.7856 77.7416 64.4796 75.709 64.3309C75.5603 62.3481 76.3038 60.3652 77.6918 58.9274ZM73.825 64.3313C71.7924 64.48 69.859 63.7859 68.4215 62.3485C66.984 60.911 66.29 58.9776 66.4387 56.945C68.4215 56.7963 70.4047 57.4903 71.8422 58.9278C73.2303 60.3652 73.9737 62.3481 73.825 64.3313ZM73.825 79.0548C71.7924 79.2035 69.859 78.5095 68.4215 77.072C66.984 75.6346 66.29 73.7012 66.4387 71.6685C68.4713 71.5198 70.4047 72.2139 71.8422 73.6513C73.2303 75.0888 73.9737 77.0717 73.825 79.0548ZM72.3875 46.2367C72.3875 44.204 73.2797 42.3205 74.767 41.0313C76.3037 42.3201 77.1465 44.2534 77.1465 46.2367C77.1465 48.2693 76.2543 50.1528 74.767 51.442C73.2303 50.1532 72.3875 48.2693 72.3875 46.2367ZM51.2193 73.2546C52.6568 71.8172 54.5902 71.1231 56.6228 71.2719C56.7715 73.2546 56.0775 75.2379 54.64 76.6754C53.2025 78.1128 51.2691 78.8069 49.2365 78.6582C49.0878 76.6259 49.8313 74.6925 51.2193 73.2546ZM47.3525 78.6585C45.3199 78.8072 43.3865 78.1132 41.949 76.6757C40.5115 75.2382 39.8175 73.3048 39.9662 71.2722C41.9988 71.1235 43.9322 71.8175 45.3697 73.255C46.7578 74.6925 47.5012 76.6259 47.3525 78.6585ZM45.915 60.5639C45.915 58.5313 46.8072 56.6477 48.2945 55.3585C49.8312 56.6473 50.674 58.5807 50.674 60.5639C50.674 62.5965 49.7818 64.4801 48.2945 65.7693C46.7578 64.4804 45.915 62.5471 45.915 60.5639Z" fill="#063100"/>
<path d="M45.7737 92.9992H31.9837C31.4408 92.9992 31 92.5584 31 92.0155V78.0904C31 77.5475 31.4408 77.1067 31.9837 77.1067C32.5266 77.1067 32.9675 77.5475 32.9675 78.0904L32.9679 91.0319H45.7732C46.3161 91.0319 46.7569 91.4727 46.7569 92.0156C46.7569 92.559 46.3161 92.9998 45.7732 92.9998L45.7737 92.9992Z" fill="#063100"/>
<path d="M91.0152 92.9994H77.2415C76.6986 92.9994 76.2578 92.5585 76.2578 92.0156C76.2578 91.4727 76.6986 91.0319 77.2415 91.0319H90.0316V78.0904C90.0316 77.5475 90.4724 77.1067 91.0153 77.1067C91.5583 77.1067 91.9991 77.5475 91.9991 78.0904L91.9995 92.0155C91.9995 92.5584 91.5587 92.9992 91.0158 92.9992L91.0152 92.9994Z" fill="#063100"/>
<path d="M91.0139 47.5903C90.471 47.5903 90.0302 47.1495 90.0302 46.6066L90.0297 33.9679H77.0501C76.5072 33.9679 76.0664 33.5271 76.0664 32.9842C76.0664 32.4412 76.5072 32.0004 77.0501 32.0004L91.0144 32C91.5574 32 91.9982 32.4408 91.9982 32.9837V46.606C91.9982 47.1489 91.5573 47.5897 91.0144 47.5897L91.0139 47.5903Z" fill="#063100"/>
<path d="M31.9837 47.7582C31.4408 47.7582 31 47.3174 31 46.7745V32.9845C31 32.4415 31.4408 32.0007 31.9837 32.0007H45.5668C46.1097 32.0007 46.5505 32.4415 46.5505 32.9845C46.5505 33.5274 46.1097 33.9682 45.5668 33.9682L32.9673 33.9686V46.7739C32.9673 47.3169 32.5265 47.7577 31.9832 47.7577L31.9837 47.7582Z" fill="#063100"/>
</svg>
