<svg width="123" height="123" viewBox="0 0 123 123" fill="none" xmlns="http://www.w3.org/2000/svg">
<circle cx="61.5" cy="61.5" r="61.5" fill="white"/>
<path d="M86.0183 51.0293V48.2884C86.0188 47.2338 85.6022 46.2215 84.8602 45.4717C84.1183 44.7224 83.1105 44.2958 82.056 44.2848H78.5451C78.3091 41.2051 76.2353 38.7827 72.8784 37.7047C72.2578 35.4408 70.674 33.5641 68.5466 32.5719C66.2552 31.6769 63.686 31.8387 61.5247 33.0133C59.3635 31.8386 56.7944 31.6769 54.5029 32.5719C52.3755 33.5641 50.7916 35.4408 50.1711 37.7047C46.8142 38.7313 44.7405 41.2258 44.5044 44.2848H40.9935C39.9334 44.2875 38.9179 44.7105 38.1691 45.4612C37.4207 46.2114 37 47.2283 37 48.2884V51.0293C37.0014 51.7864 37.2186 52.5275 37.6256 53.1654C38.033 53.8038 38.6136 54.3125 39.2997 54.6324C36.8763 63.5557 36.9506 72.9732 39.5151 81.8567C38.3447 82.568 37.5733 83.786 37.4317 85.1486C37.2897 86.5115 37.7929 87.8621 38.7919 88.7993C39.791 89.7369 41.1709 90.1535 42.5219 89.9253C43.8725 89.6966 45.0393 88.8502 45.6745 87.6361C50.8811 88.7796 56.1944 89.3647 61.5245 89.3813C66.8398 89.3758 72.1394 88.8043 77.3335 87.6774C77.9692 88.891 79.1355 89.7378 80.4865 89.9661C81.8371 90.1944 83.2169 89.7782 84.216 88.8406C85.2151 87.9029 85.7188 86.5523 85.5767 85.1899C85.4347 83.8275 84.6638 82.6093 83.4929 81.898C86.0574 73.0141 86.1321 63.5971 83.7083 54.6737C84.403 54.3524 84.9901 53.8378 85.3993 53.1915C85.809 52.5449 86.024 51.7947 86.018 51.0293L86.0183 51.0293ZM51.2596 39.5218C51.6107 39.4182 51.8852 39.1437 51.9883 38.7927C52.3696 36.8949 53.6203 35.2868 55.3659 34.4504C57.2654 33.7694 59.3726 33.9962 61.0839 35.0663C61.3854 35.2267 61.747 35.2267 62.0486 35.0663C63.7387 34.0223 65.8093 33.796 67.6845 34.4504C69.4141 35.2968 70.6488 36.9031 71.0209 38.7927C71.1245 39.1437 71.399 39.4182 71.7496 39.5218C74.5112 40.2505 76.2051 42.0062 76.4617 44.2853L46.5472 44.2848C46.8038 42.0057 48.4976 40.2505 51.2592 39.5218L51.2596 39.5218ZM83.9652 51.0293C83.9657 51.5385 83.7654 52.0275 83.4079 52.3905C83.0509 52.7535 82.5651 52.9615 82.056 52.9698H50.2327C49.6658 52.9698 49.2062 53.429 49.2062 53.9963C49.2062 54.5632 49.6658 55.0229 50.2327 55.0229H81.7064C84.1454 63.9095 83.9992 73.3074 81.2857 82.1135C81.1244 82.6487 81.4209 83.2147 81.953 83.3866C82.7371 83.641 83.3283 84.2904 83.5084 85.0951C83.6881 85.8993 83.4296 86.739 82.8283 87.3026C82.2271 87.8667 81.3728 88.0711 80.5814 87.8401C79.79 87.6092 79.1795 86.9772 78.976 86.1789C78.8348 85.6381 78.2876 85.3095 77.7441 85.4397C72.4257 86.6756 66.985 87.3095 61.5245 87.3283C56.064 87.309 50.6233 86.6752 45.3049 85.4397C44.7613 85.3095 44.2141 85.6381 44.073 86.1789C43.8686 86.9758 43.2586 87.606 42.4685 87.8365C41.6789 88.067 40.8256 87.8635 40.2248 87.3017C39.6235 86.7398 39.3632 85.9025 39.5401 85.0987C39.7165 84.2954 40.304 83.6442 41.0859 83.3866C41.6175 83.2147 41.914 82.6487 41.7532 82.1134C39.0392 73.307 38.8935 63.9099 41.332 55.0228H44.073C44.6399 55.0228 45.0995 54.5631 45.0995 53.9963C45.0995 53.4289 44.6399 52.9697 44.073 52.9697H40.9933C40.4786 52.9697 39.9851 52.7653 39.6212 52.4014C39.2573 52.0375 39.053 51.544 39.053 51.0293V48.2884C39.053 47.7728 39.2573 47.2783 39.6208 46.913C39.9842 46.5473 40.4778 46.3406 40.9933 46.3379H82.0556C82.5712 46.3406 83.0648 46.5473 83.4282 46.913C83.7916 47.2783 83.996 47.7728 83.996 48.2884L83.9652 51.0293ZM59.9954 77.7199H60.1186C64.8184 77.7309 69.1689 75.2387 71.5363 71.1787C73.9039 67.1184 73.9304 62.1051 71.606 58.02C71.4337 57.713 71.1161 57.515 70.7641 57.4967H70.6922C66.0116 57.5035 61.6813 59.9769 59.2974 64.0053C59.1947 64.19 59.1127 64.3852 59.01 64.58C57.1155 62.7973 54.5995 61.8248 51.9987 61.8696C51.6321 61.8742 51.2952 62.0736 51.1156 62.3934C49.32 65.5707 49.3466 69.4625 51.1848 72.615C53.0234 75.7676 56.3973 77.7075 60.0466 77.7098L59.9954 77.7199ZM70.0969 59.5809C71.7844 62.9456 71.6533 66.9358 69.7477 70.1823C67.8427 73.4288 64.4233 75.4892 60.6626 75.657C58.9812 72.2918 59.115 68.3043 61.0192 65.0596C62.9233 61.8155 66.339 59.7536 70.0969 59.5809H70.0969ZM52.5739 63.9438C54.6989 64.0753 56.6866 65.0377 58.1072 66.6234C57.176 69.511 57.2626 72.6306 58.3533 75.4619C55.8799 74.9757 53.7709 73.3725 52.6404 71.1196C51.5099 68.8667 51.4855 66.2174 52.5739 63.9438H52.5739Z" fill="#063100"/>
</svg>
