<svg width="123" height="123" viewBox="0 0 123 123" fill="none" xmlns="http://www.w3.org/2000/svg">
<circle cx="61.5" cy="61.5" r="61.5" fill="white"/>
<path d="M90.6824 37.8649L48.13 51.0362H36.0833C33.2802 51.0362 31 53.3165 31 56.1196V68.3196C31 71.1227 33.2802 73.4029 36.0833 73.4029H37.1V91.7029C37.1 92.2652 37.5557 92.7196 38.1167 92.7196H46.5745C48.0628 92.7196 49.4721 92.0701 50.4388 90.9386C51.4055 89.8071 51.8276 88.3148 51.5957 86.8434L50.5972 80.5196H53.3667C53.9277 80.5196 54.3834 80.0652 54.3834 79.5029V75.3386L90.6824 86.5737C90.7809 86.6041 90.8826 86.6195 90.9833 86.6195C91.198 86.6195 91.4095 86.5523 91.5861 86.4212C91.8466 86.2292 92 85.9251 92 85.6029V38.8362C92 38.5139 91.8466 38.2098 91.5861 38.0178C91.326 37.8254 90.9906 37.7687 90.6824 37.8653L90.6824 37.8649ZM33.0333 68.3196V56.1196C33.0333 54.4379 34.4017 53.0696 36.0833 53.0696H47.2667V71.3696H36.0833C34.4017 71.3696 33.0333 70.0012 33.0333 68.3196ZM48.8933 89.6173C48.3128 90.2963 47.4669 90.6857 46.5745 90.6857H39.1333V73.4024H47.415L49.5877 87.1605C49.7261 88.0419 49.4729 88.9383 48.8933 89.6177L48.8933 89.6173ZM52.35 78.4857H50.2758L49.5419 73.8394L52.35 74.7086L52.35 78.4857ZM89.9667 84.224L49.3 71.6359V52.8014L89.9667 40.2145V84.224Z" fill="#063100"/>
<path d="M56.7128 35.0667L51.6294 40.15C51.3385 40.4409 51.2514 40.878 51.4088 41.2583C51.5663 41.6387 51.9376 41.8856 52.3484 41.8856H53.961L50.6133 45.2333L52.0507 46.6707L57.134 41.5873C57.4249 41.2964 57.5121 40.8593 57.3546 40.479C57.1971 40.0991 56.8258 39.8522 56.4151 39.8522H54.8025L58.1501 36.5045L56.7128 35.0667Z" fill="#063100"/>
<path d="M48.5839 31L43.5005 36.0833C43.2096 36.3743 43.1224 36.8113 43.2799 37.1917C43.4374 37.572 43.8087 37.8189 44.2194 37.8189H45.8321L42.4844 41.1666L43.9218 42.604L49.0051 37.5207C49.296 37.2297 49.3832 36.7927 49.2257 36.4123C49.0682 36.0324 48.6969 35.7855 48.2862 35.7855H46.6736L50.0212 32.4378L48.5839 31Z" fill="#063100"/>
</svg>
