<svg width="123" height="123" viewBox="0 0 123 123" fill="none" xmlns="http://www.w3.org/2000/svg">
<circle cx="61.5" cy="61.5" r="61.5" fill="white"/>
<path d="M76.0739 39.1874C76.0739 36.5756 73.949 34.4507 71.3377 34.4507C68.7264 34.4507 66.6016 36.5756 66.6016 39.1874C66.6016 41.7993 68.7264 43.9236 71.3377 43.9236C73.949 43.9236 76.0739 41.7982 76.0739 39.1874ZM71.3377 42.2998C69.621 42.2998 68.2248 40.903 68.2248 39.1869C68.2248 37.4701 69.6216 36.0735 71.3377 36.0735C73.0539 36.0735 74.4507 37.4703 74.4507 39.1869C74.4507 40.903 73.0545 42.2998 71.3377 42.2998Z" fill="#063100"/>
<path d="M72.1473 32.229V29.8119C72.1473 29.3629 71.7838 29 71.3354 29C70.8875 29 70.5234 29.3629 70.5234 29.8119V32.229C70.5234 32.678 70.8869 33.0409 71.3354 33.0409C71.7838 33.0409 72.1473 32.678 72.1473 32.229Z" fill="#063100"/>
<path d="M76.3795 30.3374C75.9899 30.116 75.4939 30.2519 75.2726 30.6409L74.0751 32.7408C73.8537 33.1298 73.989 33.6264 74.3786 33.8477C74.5054 33.9202 74.643 33.9542 74.7794 33.9542C75.0619 33.9542 75.336 33.8064 75.4855 33.5443L76.6829 31.4443C76.9043 31.0553 76.769 30.5594 76.3795 30.3374V30.3374Z" fill="#063100"/>
<path d="M76.6252 36.0552C76.777 36.3111 77.0471 36.4527 77.3239 36.4527C77.4643 36.4527 77.607 36.4159 77.7372 36.3389L79.8169 35.1069C80.2025 34.8787 80.3299 34.3805 80.1017 33.9949C79.8735 33.6087 79.3758 33.4813 78.9897 33.7101L76.91 34.9421C76.5245 35.1714 76.3965 35.6697 76.6252 36.0552V36.0552Z" fill="#063100"/>
<path d="M81.5209 39.0181C81.513 38.5691 81.1291 38.1891 80.6954 38.2203L78.2783 38.2599C77.8305 38.2673 77.4732 38.6364 77.4806 39.0854C77.4879 39.5293 77.8497 39.8832 78.2925 39.8832H78.3061L80.7232 39.8435C81.171 39.8362 81.5283 39.4659 81.5209 39.0181H81.5209Z" fill="#063100"/>
<path d="M79.5555 44.5053C79.8426 44.5053 80.1206 44.3524 80.2683 44.0835C80.4841 43.6906 80.3397 43.1974 79.9467 42.9823L77.8275 41.8199C77.4329 41.6025 76.9414 41.7474 76.7251 42.1415C76.5094 42.5344 76.6538 43.0276 77.0467 43.2427L79.166 44.4051C79.29 44.473 79.4236 44.5053 79.5555 44.5053V44.5053Z" fill="#063100"/>
<path d="M75.5544 47.5969C75.7078 47.8471 75.9739 47.9841 76.2468 47.9841C76.3923 47.9841 76.5384 47.9451 76.6715 47.8641C77.0531 47.6297 77.1725 47.1298 76.9376 46.7482L75.6716 44.6889C75.436 44.3056 74.9361 44.1867 74.5545 44.4228C74.1729 44.6572 74.0534 45.1572 74.2884 45.5388L75.5544 47.5969Z" fill="#063100"/>
<path d="M71.5386 45.33C71.0907 45.3447 70.7391 45.7195 70.7544 46.1674L70.8348 48.5839C70.8495 49.0232 71.2096 49.3686 71.6456 49.3686C71.6546 49.3686 71.6637 49.3686 71.6733 49.3681C72.1212 49.3533 72.4728 48.9785 72.4575 48.5307L72.3771 46.1142C72.3629 45.6658 71.9796 45.2944 71.5386 45.33Z" fill="#063100"/>
<path d="M66.5897 48.2001C66.7098 48.2635 66.84 48.2935 66.9674 48.2935C67.259 48.2935 67.5415 48.1361 67.6864 47.8598L68.8131 45.7208C69.0215 45.3244 68.8698 44.8335 68.4729 44.6241C68.0765 44.4163 67.5856 44.568 67.3762 44.9643L66.2494 47.1034C66.0411 47.5003 66.194 47.9906 66.5897 48.2001V48.2001Z" fill="#063100"/>
<path d="M63.4337 45.0416C63.5832 45.0416 63.7338 45.0003 63.8697 44.9142L65.9069 43.6137C66.2845 43.3725 66.3955 42.8709 66.1543 42.4927C65.9143 42.115 65.4115 42.004 65.0333 42.2452L62.9961 43.5458C62.6184 43.787 62.5075 44.2886 62.7487 44.6668C62.9038 44.9092 63.1659 45.0416 63.4337 45.0416V45.0416Z" fill="#063100"/>
<path d="M61.1651 39.6963C61.1861 40.1306 61.545 40.4675 61.9753 40.4675C61.9889 40.4675 62.0031 40.4675 62.0167 40.4669L64.4308 40.3469C64.8787 40.3248 65.2241 39.9438 65.2009 39.4953C65.1788 39.0464 64.8045 38.701 64.3504 38.7253L61.9363 38.8454C61.4878 38.8669 61.1425 39.2485 61.1651 39.6963L61.1651 39.6963Z" fill="#063100"/>
<path d="M62.2436 34.5922C62.0415 34.9925 62.2023 35.4811 62.6014 35.6833L64.758 36.7732C64.8758 36.8326 65.0009 36.8598 65.1232 36.8598C65.4193 36.8598 65.7053 36.6967 65.8491 36.4142C66.0512 36.0139 65.8904 35.5253 65.4912 35.3232L63.3346 34.2333C62.9326 34.0311 62.4463 34.1908 62.2436 34.5922V34.5922Z" fill="#063100"/>
<path d="M67.498 34.1965C67.6514 34.1965 67.8071 34.1529 67.9453 34.0617C68.3195 33.8143 68.422 33.3098 68.174 32.9367L66.8395 30.9211C66.5921 30.5475 66.0893 30.4444 65.7156 30.693C65.3414 30.9404 65.2389 31.4449 65.4869 31.818L66.8214 33.8336C66.9759 34.0691 67.2353 34.1965 67.498 34.1965V34.1965Z" fill="#063100"/>
<path d="M93.0885 64.2946C92.9718 64.2997 89.2622 64.4837 83.4214 65.5249V63.5234C83.5771 63.5325 83.7487 63.5381 83.9378 63.5381C85.1279 63.5381 86.8893 63.3122 88.0557 62.1459C89.9195 60.282 89.3822 56.9002 89.3585 56.7563C89.3018 56.4137 89.034 56.1459 88.6915 56.0893C88.5918 56.0729 86.8966 55.8068 85.2502 56.2909C85.6641 55.6001 85.9732 54.795 85.9732 53.9186C85.9732 51.2823 83.2012 49.2708 83.0834 49.1875C82.8008 48.9859 82.4221 48.9859 82.1395 49.1875C82.0218 49.2718 79.2497 51.2823 79.2497 53.9186C79.2497 54.7979 79.5605 55.6047 79.9755 56.2959C78.3239 55.8051 76.6186 56.0729 76.5183 56.0898C76.1758 56.1465 75.908 56.4143 75.8513 56.7568C75.8276 56.9006 75.2902 60.283 77.153 62.1464C78.3205 63.3128 80.0807 63.5387 81.2708 63.5387C81.4656 63.5387 81.64 63.5324 81.7991 63.5234V65.8277C78.1806 66.5275 73.8844 67.5387 69.197 68.995C66.8683 67.8604 64.5565 66.8481 62.2861 65.9381V63.5816C62.4418 63.5907 62.6133 63.5964 62.8024 63.5964C63.9914 63.5964 65.7539 63.3704 66.9203 62.2041C68.7841 60.3403 68.2468 56.9584 68.2219 56.8145C68.1653 56.472 67.8975 56.2042 67.555 56.1475C67.4542 56.1306 65.7601 55.8645 64.1143 56.348C64.5276 55.6572 64.8367 54.8527 64.8367 53.9763C64.8367 51.34 62.0647 49.3285 61.9469 49.2452C61.6643 49.0436 61.2856 49.0436 61.003 49.2452C60.8853 49.3295 58.1131 51.34 58.1131 53.9763C58.1131 54.8555 58.424 55.6624 58.839 56.3536C57.1879 55.8627 55.4827 56.1305 55.3814 56.1464C55.0388 56.203 54.771 56.4708 54.7144 56.8134C54.6906 56.9572 54.1533 60.3396 56.0172 62.203C57.1835 63.3693 58.9449 63.5952 60.135 63.5952C60.3298 63.5952 60.5042 63.589 60.6633 63.5799V65.3035C53.2388 62.4669 46.3563 60.757 40.9872 59.7362V57.8457C41.1429 57.8547 41.315 57.8604 41.5041 57.8604C42.6942 57.8604 44.4544 57.6345 45.6202 56.4681C47.4841 54.6043 46.9468 51.2213 46.9219 51.0785C46.8653 50.736 46.5963 50.4682 46.2549 50.4116C46.1541 50.3952 44.4601 50.129 42.8137 50.6137C43.2276 49.923 43.5367 49.1179 43.5367 48.2414C43.5367 45.6069 40.7646 43.5936 40.6468 43.5103C40.3643 43.3087 39.9855 43.3087 39.703 43.5103C39.5846 43.5947 36.8131 45.6069 36.8131 48.2414C36.8131 49.1207 37.1239 49.9281 37.5395 50.6193C35.8884 50.1285 34.1832 50.3963 34.0819 50.4121C33.7399 50.4687 33.4715 50.7366 33.4149 51.0791C33.3911 51.2218 32.8532 54.6053 34.7166 56.4687C35.8829 57.635 37.6427 57.8609 38.8327 57.8609C39.028 57.8609 39.203 57.8547 39.3626 57.8456V59.44C33.5892 58.4294 29.9294 58.255 29.8462 58.2516C29.4097 58.2352 29.0207 58.5794 29.0015 59.0284C28.9828 59.4763 29.3304 59.8545 29.7783 59.8732C29.96 59.8811 47.6687 60.7326 66.9418 69.7203C64.3883 70.5708 61.7375 71.5553 59.0322 72.6905C47.4504 67.7019 36.8138 65.5215 29.9232 64.5731C29.4833 64.5091 29.0694 64.8217 29.0083 65.2661C28.9471 65.71 29.2574 66.1199 29.7013 66.1811C36.2079 67.0779 46.1045 69.0936 56.9608 73.5833C54.6394 74.6149 52.2864 75.762 49.9293 77.0337C43.5366 74.5323 36.8205 72.5898 29.9662 71.2621C29.524 71.176 29.0999 71.4648 29.015 71.9041C28.9295 72.3441 29.2177 72.7704 29.6576 72.8553C35.9656 74.0777 42.1495 75.8335 48.0698 78.0653C46.0026 79.239 43.9378 80.5107 41.8922 81.8915C38.0422 80.4834 34.0454 79.2615 30.0068 78.2635C29.5731 78.157 29.132 78.4208 29.0245 78.8562C28.9163 79.2911 29.183 79.731 29.6179 79.8391C33.2227 80.7303 36.7869 81.8083 40.2451 83.0324C36.4511 85.7172 32.7437 88.7814 29.2384 92.2873C28.9208 92.605 28.9208 93.1179 29.2384 93.435C29.3969 93.5935 29.6047 93.6728 29.8125 93.6728C30.0203 93.6728 30.2281 93.5935 30.3866 93.435C56.0431 67.7785 92.7906 65.9348 93.1573 65.9189C93.6052 65.9002 93.9528 65.522 93.9342 65.0741C93.9121 64.6229 93.5429 64.2537 93.0866 64.2945L93.0885 64.2946ZM87.8111 57.6305C87.8547 58.5047 87.7963 60.1088 86.9069 60.9982C86.0666 61.8367 84.5141 61.9516 83.5443 61.9074C83.5007 61.0333 83.559 59.4292 84.4485 58.5398C85.2882 57.7002 86.8389 57.5841 87.8111 57.6305ZM82.6067 50.8975C83.255 51.484 84.3489 52.6594 84.3489 53.9187C84.3489 55.106 83.3366 56.2847 82.6135 56.9399C81.9652 56.3533 80.8713 55.1779 80.8713 53.9187C80.8713 52.7314 81.8831 51.5526 82.6067 50.8975ZM81.6668 61.9069C80.6936 61.9596 79.1411 61.839 78.2998 60.9988C77.459 60.158 77.3418 58.6049 77.3905 57.6317C78.3644 57.5774 79.9163 57.6991 80.7576 58.5399C81.5983 59.3813 81.7155 60.9344 81.6668 61.9069ZM66.6753 57.6888C66.7189 58.563 66.6606 60.167 65.7711 61.0564C64.9303 61.8966 63.3807 62.0189 62.4041 61.9646C62.3554 60.9913 62.4715 59.4388 63.3134 58.5975C64.1525 57.7584 65.702 57.6441 66.6753 57.6888L66.6753 57.6888ZM61.471 50.9557C62.1193 51.5423 63.2132 52.7177 63.2132 53.9769C63.2132 55.1642 62.2009 56.343 61.4778 56.9981C60.8295 56.4116 59.7356 55.2362 59.7356 53.9769C59.7356 52.7896 60.7473 51.6103 61.471 50.9557ZM60.5311 61.9646C59.5573 62.0184 58.0053 61.8967 57.1641 61.0565C56.3233 60.2157 56.2061 58.6626 56.2548 57.6894C57.2315 57.6356 58.7817 57.7568 59.6218 58.5976C60.4626 59.4389 60.5798 60.9915 60.5311 61.9646ZM45.3802 51.9534C45.4288 52.9266 45.3128 54.4792 44.4709 55.3204C43.6289 56.1612 42.081 56.2824 41.1038 56.2286C41.0551 55.2553 41.1712 53.7034 42.0131 52.8626C42.855 52.0217 44.407 51.9023 45.3802 51.9533V51.9534ZM40.1735 45.2174C40.8965 45.8714 41.9122 47.0518 41.9122 48.2408C41.9122 49.4309 40.8976 50.6109 40.1735 51.2653C39.4505 50.6114 38.4347 49.4309 38.4347 48.2408C38.4353 47.0518 39.4499 45.8713 40.1735 45.2174ZM39.2308 56.2292C38.2598 56.2813 36.705 56.1618 35.8637 55.3211C35.023 54.4803 34.9058 52.9272 34.9545 51.954C35.926 51.9036 37.4802 52.022 38.3215 52.8633C39.1629 53.7035 39.2795 55.2566 39.2308 56.2293V56.2292Z" fill="#063100"/>
<path d="M93.0135 70.6155C81.743 72.1692 60.0476 77.0435 41.3817 92.231C41.0335 92.5141 40.9814 93.0253 41.2639 93.3724C41.4247 93.5694 41.6586 93.6719 41.8936 93.6719C42.0736 93.6719 42.2548 93.6125 42.4048 93.489C60.7648 78.5511 82.1324 73.7535 93.2351 72.2229C93.679 72.1618 93.9893 71.7524 93.9281 71.308C93.8675 70.8641 93.4542 70.5481 93.0143 70.6155L93.0135 70.6155Z" fill="#063100"/>
<path d="M93.9217 77.9468C93.8362 77.5069 93.4093 77.2187 92.9705 77.3047C83.3068 79.1783 68.8895 83.2786 55.0866 92.1774C54.71 92.4209 54.6013 92.9231 54.8448 93.3002C54.9999 93.5414 55.2609 93.6721 55.5276 93.6721C55.6788 93.6721 55.8311 93.6297 55.967 93.5431C69.5521 84.7847 83.7556 80.745 93.2798 78.898C93.718 78.8125 94.0062 78.3861 93.9207 77.9462L93.9217 77.9468Z" fill="#063100"/>
<path d="M93.9085 84.8983C93.8004 84.4634 93.3576 84.1985 92.9256 84.3055C85.1949 86.217 77.8123 88.8712 70.984 92.1936C70.5809 92.3901 70.4133 92.8753 70.6092 93.279C70.7496 93.5672 71.0384 93.7353 71.3396 93.7353C71.4579 93.7353 71.5791 93.7093 71.694 93.6532C78.4203 90.3813 85.6947 87.766 93.3153 85.8812C93.7507 85.773 94.0162 85.3331 93.9087 84.8983L93.9085 84.8983Z" fill="#063100"/>
</svg>
