<svg width="123" height="123" viewBox="0 0 123 123" fill="none" xmlns="http://www.w3.org/2000/svg">
<circle cx="61.5" cy="61.5" r="61.5" fill="white"/>
<path fill-rule="evenodd" clip-rule="evenodd" d="M91.2976 46.2583H86.6144C86.257 45.1934 85.25 44.4188 84.0632 44.4188C82.8787 44.4188 81.8708 45.1934 81.5143 46.2583H75.3327C74.9762 45.1934 73.9684 44.4188 72.783 44.4188C71.5985 44.4188 70.5893 45.1934 70.2327 46.2583H64.0511C63.6932 45.193 62.6854 44.4188 61.5009 44.4188C60.3155 44.4188 59.3085 45.1934 58.9512 46.2583H52.7696C52.4117 45.1934 51.4038 44.4188 50.2194 44.4188C49.0349 44.4188 48.027 45.1934 47.6696 46.2583H41.488C41.1315 45.1934 40.1237 44.4188 38.9378 44.4188C37.7524 44.4188 36.7446 45.1934 36.3881 46.2583H31.7043V40.8644H57.9542C58.4233 40.8644 58.8058 40.4866 58.8058 40.0165V35.9595H64.1975V40.0165C64.1975 40.4866 64.579 40.8644 65.0491 40.8644L91.2977 40.8648L91.2976 46.2583ZM84.0637 48.0974C84.608 48.0974 85.0507 47.6551 85.0507 47.1109C85.0507 46.5675 84.6075 46.1243 84.0637 46.1243C83.5194 46.1243 83.0776 46.5666 83.0776 47.1109C83.0781 47.6546 83.5194 48.0974 84.0637 48.0974ZM72.7825 48.0974C73.3267 48.0974 73.7686 47.6551 73.7686 47.1109C73.7686 46.5675 73.3267 46.1243 72.7825 46.1243C72.2392 46.1243 71.7955 46.5666 71.7955 47.1109C71.796 47.6546 72.2392 48.0974 72.7825 48.0974ZM61.5008 48.0974C62.0451 48.0974 62.4873 47.6551 62.4873 47.1109C62.4873 46.5675 62.0441 46.1243 61.5008 46.1243C60.9566 46.1243 60.5138 46.5666 60.5138 47.1109C60.5138 47.6546 60.9566 48.0974 61.5008 48.0974ZM50.2191 48.0974C50.7634 48.0974 51.2061 47.6551 51.2061 47.1109C51.2061 46.5675 50.7629 46.1243 50.2191 46.1243C49.6749 46.1243 49.2326 46.5666 49.2326 47.1109C49.2317 47.6546 49.6749 48.0974 50.2191 48.0974ZM38.9366 48.0974C39.4809 48.0974 39.9236 47.6551 39.9236 47.1109C39.9236 46.5675 39.4804 46.1243 38.9366 46.1243C38.3938 46.1243 37.9506 46.5666 37.9506 47.1109C37.9515 47.6546 38.3938 48.0974 38.9366 48.0974ZM55.6647 31.7004H67.3372V34.2545H55.6647V31.7004ZM92.1495 39.1644H65.8997V35.9605H68.1885C68.659 35.9605 69.0401 35.5776 69.0401 35.1075L69.0396 30.8484C69.0396 30.3783 68.6595 30.0005 68.188 30.0005L54.8127 30C54.3412 30 53.9611 30.3778 53.9611 30.8479V35.1075C53.9611 35.5776 54.3412 35.9605 54.8127 35.9605H57.1014V39.1644L30.8516 39.1649C30.3815 39.1649 30 39.5478 30 40.0179V47.1118C30 47.5819 30.3815 47.9597 30.8516 47.9597H36.3861C36.7426 49.0292 37.7504 49.7993 38.9358 49.7993C40.1217 49.7993 41.1295 49.0292 41.486 47.9597H47.6676C48.0241 49.0292 49.0329 49.7993 50.2174 49.7993C51.4019 49.7993 52.4098 49.0292 52.7676 47.9597H58.9492C59.3075 49.0288 60.3145 49.7988 61.4999 49.7988C62.6844 49.7988 63.6923 49.0288 64.0496 47.9592H70.2312C70.5877 49.0288 71.597 49.7988 72.7814 49.7988C73.9669 49.7988 74.9747 49.0288 75.3312 47.9592H81.5128C81.8693 49.0288 82.8771 49.7988 84.0617 49.7988C85.2476 49.7988 86.2554 49.0288 86.6128 47.9592H92.1473C92.6164 47.9592 92.9989 47.5814 92.9989 47.1113V40.0169C92.9998 39.5469 92.6183 39.1644 92.1482 39.1644L92.1495 39.1644ZM60.6493 60.305C60.6493 59.8349 61.0299 59.452 61.5009 59.452C61.9715 59.452 62.3525 59.8349 62.3525 60.305V62.0059C62.3525 62.476 61.971 62.859 61.5009 62.859C61.0308 62.859 60.6493 62.477 60.6493 62.0059V60.305ZM60.6493 55.1976V53.4966C60.6493 53.0266 61.0299 52.6436 61.5009 52.6436C61.9715 52.6436 62.3525 53.0266 62.3525 53.4966V55.1976C62.3525 55.6681 61.971 56.0506 61.5009 56.0506C61.0308 56.0501 60.6493 55.6677 60.6493 55.1976ZM71.9318 60.305C71.9318 59.8349 72.3133 59.452 72.7834 59.452C73.2535 59.452 73.635 59.8349 73.635 60.305V62.0059C73.635 62.476 73.2535 62.859 72.7834 62.859C72.3133 62.859 71.9318 62.477 71.9318 62.0059V60.305ZM71.9318 55.1976V53.4966C71.9318 53.0266 72.3133 52.6436 72.7834 52.6436C73.2535 52.6436 73.635 53.0266 73.635 53.4966V55.1976C73.635 55.6681 73.2535 56.0506 72.7834 56.0506C72.3133 56.0497 71.9318 55.6677 71.9318 55.1976ZM49.3682 60.305C49.3682 59.8349 49.7497 59.452 50.2198 59.452C50.6899 59.452 51.0715 59.8349 51.0715 60.305V62.0059C51.0715 62.476 50.6899 62.859 50.2198 62.859C49.7497 62.859 49.3682 62.477 49.3682 62.0059V60.305ZM49.3682 55.1976V53.4966C49.3682 53.0266 49.7497 52.6436 50.2198 52.6436C50.6899 52.6436 51.0715 53.0266 51.0715 53.4966V55.1976C51.0715 55.6681 50.6899 56.0506 50.2198 56.0506C49.7488 56.0497 49.3682 55.6677 49.3682 55.1976ZM83.2136 60.305C83.2136 59.8349 83.5937 59.452 84.0652 59.452C84.5353 59.452 84.9155 59.8349 84.9155 60.305V62.0059C84.9155 62.476 84.5353 62.859 84.0652 62.859C83.5937 62.859 83.2136 62.477 83.2136 62.0059V60.305ZM83.2136 55.1976V53.4966C83.2136 53.0266 83.5937 52.6436 84.0652 52.6436C84.5353 52.6436 84.9155 53.0266 84.9155 53.4966V55.1976C84.9155 55.6681 84.5353 56.0506 84.0652 56.0506C83.5937 56.0497 83.2136 55.6677 83.2136 55.1976ZM38.0864 55.1976V53.4966C38.0864 53.0266 38.4665 52.6436 38.9366 52.6436C39.4072 52.6436 39.7883 53.0266 39.7883 53.4966V55.1976C39.7883 55.6681 39.4081 56.0506 38.9366 56.0506C38.4666 56.0497 38.0864 55.6677 38.0864 55.1976ZM38.0864 60.305C38.0864 59.8349 38.4665 59.452 38.9366 59.452C39.4072 59.452 39.7883 59.8349 39.7883 60.305V62.0059C39.7883 62.476 39.4081 62.859 38.9366 62.859C38.4666 62.859 38.0864 62.477 38.0864 62.0059V60.305ZM38.9366 88.9C40.6519 88.9 42.1879 89.8448 42.981 91.2972H34.8935C35.6868 89.8448 37.2222 88.9 38.9365 88.9H38.9366ZM37.475 71.6319C37.4272 70.3733 37.9298 69.0691 38.9371 67.8193C39.9436 69.0686 40.4471 70.3733 40.3997 71.6319C40.3728 72.3514 40.1656 73.0561 39.7878 73.7297L39.7883 71.3097C39.7883 70.8396 39.4081 70.4567 38.9366 70.4567C38.4665 70.4567 38.0864 70.8396 38.0864 71.3097V73.7302C37.7086 73.0561 37.5009 72.3515 37.4749 71.6319H37.475ZM61.5007 88.9C63.216 88.9 64.752 89.8448 65.5451 91.2972H57.4563C58.2495 89.8448 59.7854 88.9 61.5007 88.9ZM60.0381 71.6319C59.9917 70.3733 60.4952 69.0691 61.5007 67.8193C62.5072 69.0686 63.0107 70.3733 62.9633 71.6319C62.9364 72.3514 62.7278 73.0561 62.3514 73.7297V71.3097C62.3514 70.8396 61.9699 70.4567 61.4998 70.4567C61.0297 70.4567 60.6481 70.8396 60.6481 71.3097V73.7302C60.2726 73.0561 60.0649 72.3515 60.038 71.6319H60.0381ZM84.065 88.9C85.7789 88.9 87.3148 89.8448 88.108 91.2972H80.0205C80.8142 89.8448 82.3496 88.9 84.0649 88.9H84.065ZM82.6024 71.6319C82.556 70.3733 83.0595 69.0691 84.065 67.8193C85.0715 69.0686 85.5736 70.3733 85.5272 71.6319C85.5003 72.3514 85.293 73.0561 84.9152 73.7297V71.3097C84.9152 70.8396 84.5351 70.4567 84.065 70.4567C83.5935 70.4567 83.2133 70.8396 83.2133 71.3097V73.7302C82.8355 73.0561 82.6278 72.3515 82.6023 71.6319H82.6024ZM32.0396 76.6934C35.2213 76.8733 37.1475 78.0351 37.887 80.2246C35.0285 80.6396 33.1393 79.501 32.0396 76.6934ZM45.8339 76.6934C44.7352 79.5004 42.8474 80.6437 39.9861 80.2246C40.7265 78.0351 42.6523 76.8733 45.8339 76.6934ZM54.6019 76.6934C57.7845 76.8733 59.7098 78.0351 60.4506 80.2246C57.5916 80.6396 55.702 79.501 54.6019 76.6934ZM68.3986 76.6934C67.2998 79.5004 65.4121 80.6437 62.5498 80.2246C63.2907 78.0351 65.2151 76.8733 68.3986 76.6934ZM77.167 76.6934C80.3488 76.8733 82.274 78.0351 83.0135 80.2246C80.1564 80.6396 78.2653 79.501 77.167 76.6934ZM90.9613 76.6934C89.8626 79.5004 87.9753 80.6437 85.1139 80.2246C85.8534 78.0351 87.7786 76.8733 90.9613 76.6934ZM92.1486 91.2971H89.9739C89.1612 89.1163 87.2104 87.5674 84.9137 87.2587V81.9111C85.3569 81.9704 85.7839 82.0033 86.196 82.0033C89.5371 82.0033 91.8575 79.9839 92.9674 76.0521C93.0388 75.7985 92.9882 75.5268 92.8302 75.314C92.6725 75.1022 92.425 74.9728 92.1607 74.9687C88.8488 74.9269 86.4256 75.697 84.9129 77.2732V76.4526C86.364 75.0605 87.1627 73.4239 87.2267 71.6952C87.3009 69.7267 86.4168 67.7352 84.6736 65.9419C84.5123 65.7806 84.2921 65.6883 84.0631 65.6883C83.8331 65.6883 83.6129 65.7806 83.4525 65.9419C81.708 67.7351 80.8243 69.7267 80.8985 71.6952C80.962 73.4239 81.7613 75.0604 83.2114 76.4526V77.2732C81.7001 75.6919 79.2791 74.9223 75.9635 74.9687C75.6993 74.9733 75.4517 75.1022 75.2941 75.314C75.1369 75.5259 75.0864 75.798 75.1578 76.0521C76.2677 79.9843 78.5874 82.0033 81.9291 82.0033C82.3413 82.0033 82.7682 81.9709 83.2115 81.9111V87.2587C80.9152 87.5675 78.9654 89.1163 78.1513 91.2971H67.4107C66.5984 89.1163 64.6486 87.5674 62.3519 87.2587V81.9111C62.7937 81.9704 63.2216 82.0033 63.6328 82.0033C66.9744 82.0033 69.2938 79.9839 70.4042 76.0521C70.477 75.7985 70.4264 75.5268 70.2669 75.314C70.1093 75.1022 69.8618 74.9728 69.5975 74.9687C66.2815 74.9269 63.861 75.697 62.351 77.2732V76.4526C63.8016 75.0605 64.5989 73.4239 64.6634 71.6952C64.7375 69.7267 63.8535 67.7352 62.1103 65.9419C61.9503 65.7806 61.7302 65.6883 61.4997 65.6883C61.2693 65.6883 61.0491 65.7806 60.8892 65.9419C59.1447 67.7351 58.262 69.7267 58.3348 71.6952C58.3997 73.4239 59.1976 75.0604 60.6486 76.4526V77.2732C59.1373 75.697 56.7141 74.9223 53.4021 74.9687C53.1378 74.9733 52.8903 75.1022 52.7327 75.314C52.5741 75.5259 52.5236 75.798 52.5964 76.0521C53.7062 79.9843 56.0252 82.0033 59.3672 82.0033C59.7784 82.0033 60.2063 81.9709 60.6486 81.9111V87.2587C58.3524 87.5675 56.4026 89.1163 55.5899 91.2971H44.8473C44.0347 89.1163 42.0839 87.5674 39.7872 87.2587V81.9111C40.2304 81.9704 40.6573 82.0033 41.0695 82.0033C44.4106 82.0033 46.7309 79.9839 47.8408 76.0521C47.9122 75.7985 47.8622 75.5268 47.7045 75.314C47.5469 75.1022 47.2994 74.9728 47.0351 74.9687C43.7204 74.9269 41.2986 75.697 39.7873 77.2732V76.4526C41.2384 75.0605 42.0366 73.4239 42.1011 71.6952C42.1743 69.7267 41.2916 67.7352 39.5467 65.9419C39.3868 65.7806 39.1666 65.6883 38.9362 65.6883C38.7076 65.6883 38.4869 65.7806 38.327 65.9419C36.5825 67.7351 35.6984 69.7267 35.7726 71.6952C35.8371 73.4239 36.6358 75.0604 38.0864 76.4526V77.2732C36.5737 75.697 34.1514 74.9223 30.8386 74.9687C30.5743 74.9733 30.3268 75.1022 30.1692 75.314C30.0115 75.5259 29.961 75.798 30.0329 76.0521C31.1427 79.9843 33.4617 82.0033 36.8037 82.0033C37.2159 82.0033 37.6433 81.9709 38.0861 81.9111V87.2587C35.7903 87.5675 33.8395 89.1163 33.0268 91.2971H30.8521C30.382 91.2971 30.0005 91.6749 30.0005 92.145C30.0005 92.6197 30.382 92.998 30.8521 92.998H92.1484C92.6175 92.998 93 92.6202 93 92.145C93 91.6749 92.6185 91.2971 92.1484 91.2971H92.1486Z" fill="#063100"/>
</svg>
