<svg width="123" height="123" viewBox="0 0 123 123" fill="none" xmlns="http://www.w3.org/2000/svg">
<circle cx="61.5" cy="61.5" r="61.5" fill="white"/>
<path d="M26.7995 56.1547L52.4332 36.157C52.7793 35.8869 53.2554 35.8986 53.5859 36.1587L53.587 36.157L78.9478 56.1447L79.8035 56.7665C80.0558 56.9496 80.1903 57.2349 80.1903 57.5246H80.1914V87.1309C80.1914 87.6489 79.7717 88.0687 79.2537 88.0687H26.7659C26.2479 88.0687 25.8281 87.6489 25.8281 87.1309V57.3645C25.8281 57.0352 25.9984 56.7449 26.2552 56.578L26.7983 56.1543L26.7995 56.1547ZM53.0034 38.0834L27.9499 57.628L27.7048 57.8189V86.1934H78.3163V58.0018L77.8418 57.6574C77.8284 57.6479 77.815 57.6378 77.8016 57.6278L53.0025 38.0832L53.0034 38.0834Z" fill="#063100"/>
<path d="M24.5124 54.2741C24.1038 54.5918 23.5149 54.5181 23.1973 54.1095C22.8797 53.7009 22.9534 53.112 23.362 52.7943L52.4339 30.1973C52.785 29.9244 53.2684 29.9405 53.5994 30.209L82.6556 52.7946C83.0642 53.1123 83.1379 53.7012 82.8202 54.1098C82.5026 54.5184 81.9137 54.5921 81.5051 54.2744L53.0091 32.1247L24.5131 54.2744L24.5124 54.2741Z" fill="#063100"/>
<path d="M35.719 69.7163H48.7158C49.2338 69.7163 49.6536 70.1361 49.6536 70.6541V84.3173C49.6536 84.8354 49.2338 85.2551 48.7158 85.2551H35.719C35.201 85.2551 34.7812 84.8354 34.7812 84.3173V70.6541C34.7812 70.1361 35.201 69.7163 35.719 69.7163ZM47.7781 71.5919H36.6569V83.3796H47.7781V71.5919Z" fill="#063100"/>
<path d="M39.3164 70.6551C39.3164 70.1371 39.7362 69.7173 40.2542 69.7173C40.7722 69.7173 41.192 70.1371 41.192 70.6551V73.9837L41.5509 73.6248C41.9171 73.2586 42.5111 73.2586 42.8772 73.6248L43.2362 73.9837V70.6551C43.2362 70.1371 43.6559 69.7173 44.1739 69.7173C44.692 69.7173 45.1117 70.1371 45.1117 70.6551V76.2472C45.1117 76.4873 45.0202 76.7273 44.8371 76.9104C44.4709 77.2766 43.877 77.2766 43.5108 76.9104L42.2141 75.6137L40.9213 76.9065C40.751 77.0784 40.5154 77.185 40.2542 77.185C39.7362 77.185 39.3164 76.7653 39.3164 76.2472L39.3164 70.6551Z" fill="#063100"/>
<path d="M57.3011 69.7163H70.2978C70.8158 69.7163 71.2356 70.1361 71.2356 70.6541V84.3173C71.2356 84.8354 70.8158 85.2551 70.2978 85.2551H57.3011C56.7831 85.2551 56.3633 84.8354 56.3633 84.3173V70.6541C56.3633 70.1361 56.7831 69.7163 57.3011 69.7163ZM69.3601 71.5919H58.2389V83.3796H69.3601V71.5919Z" fill="#063100"/>
<path d="M60.9024 70.6551C60.9024 70.1371 61.3221 69.7173 61.8401 69.7173C62.3582 69.7173 62.7779 70.1371 62.7779 70.6551V73.9837L63.1369 73.6248C63.503 73.2586 64.097 73.2586 64.4632 73.6248L64.8221 73.9837V70.6551C64.8221 70.1371 65.2419 69.7173 65.7599 69.7173C66.2779 69.7173 66.6977 70.1371 66.6977 70.6551V76.2472C66.6977 76.4873 66.6061 76.7273 66.423 76.9104C66.0568 77.2766 65.4629 77.2766 65.0967 76.9104L63.8 75.6137L62.5072 76.9065C62.3369 77.0784 62.1014 77.185 61.8401 77.185C61.3221 77.185 60.9023 76.7653 60.9023 76.2472L60.9024 70.6551Z" fill="#063100"/>
<path d="M46.512 52.7437H59.5088C60.0268 52.7437 60.4466 53.1634 60.4466 53.6814V67.3447C60.4466 67.8627 60.0268 68.2825 59.5088 68.2825H46.512C45.994 68.2825 45.5742 67.8627 45.5742 67.3447V53.6814C45.5742 53.1634 45.994 52.7437 46.512 52.7437ZM58.571 54.6192H47.4499V66.4069H58.571V54.6192Z" fill="#063100"/>
<path d="M50.1133 53.6812C50.1133 53.1632 50.5331 52.7434 51.0511 52.7434C51.5691 52.7434 51.9889 53.1632 51.9889 53.6812V57.0098L52.3478 56.6509C52.714 56.2847 53.3079 56.2847 53.6741 56.6509L54.033 57.0098V53.6812C54.033 53.1632 54.4528 52.7434 54.9708 52.7434C55.4888 52.7434 55.9086 53.1632 55.9086 53.6812V59.2734C55.9086 59.5134 55.8171 59.7534 55.634 59.9365C55.2678 60.3027 54.6738 60.3027 54.3077 59.9365L53.011 58.6398L51.7181 59.9326C51.5479 60.1045 51.3123 60.2112 51.0511 60.2112C50.5331 60.2112 50.1133 59.7914 50.1133 59.2734L50.1133 53.6812Z" fill="#063100"/>
<rect x="47.2031" y="59.9934" width="33.1506" height="28.941" fill="white"/>
<path d="M95.431 75.762L92.5165 68.103L84.7684 68.1024V59.9934L45.625 59.994V88.6572H51.2725C51.6333 90.8719 53.4263 92.562 55.5833 92.562C57.7403 92.562 59.5349 90.8714 59.8947 88.6572H60.083C60.4438 90.8719 62.2368 92.562 64.3938 92.562C66.5508 92.562 68.3443 90.8714 68.7046 88.6572H86.383C86.7439 90.8719 88.5368 92.562 90.6944 92.562C92.8514 92.562 94.6444 90.8714 95.0041 88.6572H99.8235L99.823 78.4171L95.431 75.762ZM55.5826 90.9316C54.0006 90.9316 52.7141 89.545 52.7141 87.8406C52.7141 86.1363 54.0006 84.7497 55.5826 84.7497C57.1646 84.7497 58.4517 86.1363 58.4517 87.8406C58.4517 89.545 57.1646 90.9316 55.5826 90.9316ZM64.3936 90.9316C62.8116 90.9316 61.525 89.545 61.525 87.8406C61.525 86.1363 62.8116 84.7497 64.3936 84.7497C65.9756 84.7497 67.2622 86.1363 67.2622 87.8406C67.2622 89.545 65.9756 90.9316 64.3936 90.9316ZM83.2563 68.1022V87.0268H68.7042C68.3449 84.8115 66.5514 83.1203 64.3933 83.1203C62.2358 83.1203 60.4412 84.8115 60.0825 87.0268H59.8942C59.5344 84.8115 57.7404 83.1203 55.5828 83.1203C53.4253 83.1203 51.6307 84.8115 51.272 87.0268H47.1369L47.1379 61.6224H83.2564L83.2563 68.1022ZM90.6931 90.9316C89.1111 90.9316 87.8229 89.545 87.8229 87.8406C87.8229 86.1363 89.1106 84.7497 90.6931 84.7497C92.2751 84.7497 93.5617 86.1363 93.5617 87.8406C93.5617 89.545 92.2751 90.9316 90.6931 90.9316ZM98.3098 87.0268H95.0029C94.6436 84.8115 92.8506 83.1203 90.6931 83.1203C88.5356 83.1203 86.7404 84.8115 86.3818 87.0268H84.7687V69.7317H91.5023L94.2316 76.9053L98.3098 79.3717V87.0268Z" fill="#063100"/>
<path d="M87.7584 71.4731H86.2461V77.1766H91.5396V75.5467H87.7584V71.4731Z" fill="#063100"/>
</svg>
