<svg width="135" height="93" viewBox="0 0 135 93" fill="none" xmlns="http://www.w3.org/2000/svg">
<path d="M135 62.3252C135 78.9144 121.552 92.3614 104.964 92.3614C88.3747 92.3614 74.9277 78.9133 74.9277 62.3252C74.9277 45.7372 88.3747 32.2891 104.964 32.2891C121.552 32.2891 135 45.7372 135 62.3252Z" fill="url(#paint0_linear_273_29)"/>
<path d="M29.0888 73.5931C29.0888 81.6261 22.577 88.1381 14.5449 88.1381C6.512 88.1381 0 81.6264 0 73.5931C0 65.561 6.51172 59.0493 14.5449 59.0493C22.577 59.0493 29.0888 65.561 29.0888 73.5931Z" fill="url(#paint1_linear_273_29)"/>
<path d="M58.4545 33.7941H44.019V4.96924H36.5685V33.7941H10.5831C7.22967 33.7941 4.5293 36.5108 4.5293 39.8479V43.2316H12.6013V45.7306H4.5293V47.9037H12.6013V50.4027H4.5293V52.5758H12.6013V55.0748H4.5293V59.5758V59.6538C7.35413 57.6204 10.8159 56.4251 14.5416 56.4251C21.139 56.4251 26.8821 60.166 29.7698 65.6461H58.4561C61.8095 65.6461 64.5099 62.9294 64.5099 59.5923V39.8783C64.5088 36.511 61.7922 33.7943 58.455 33.7943L58.4545 33.7941Z" fill="url(#paint2_linear_273_29)"/>
<path d="M106.345 0.00216342H72.5665C69.6322 0.00216342 67.2578 2.37667 67.2578 5.31088V62.2926C67.2578 65.2269 69.6323 67.6013 72.5665 67.6013H72.6283C72.3489 65.8786 72.1941 64.1082 72.1941 62.3076C72.1941 44.2859 86.8635 29.6159 104.886 29.6159C107.214 29.6159 109.48 29.8639 111.669 30.3295L111.668 5.30872C111.668 2.37551 109.278 0 106.344 0L106.345 0.00216342ZM105.801 16.9226C105.801 19.1888 103.969 21.0361 101.688 21.0361H77.2236C74.9574 21.0361 73.1101 19.204 73.1101 16.9226V9.39415C73.1101 7.12791 74.9422 5.28067 77.2236 5.28067H101.688C103.954 5.28067 105.801 7.11272 105.801 9.39415V16.9226Z" fill="url(#paint3_linear_273_29)"/>
<defs>
<linearGradient id="paint0_linear_273_29" x1="104.964" y1="32.2891" x2="104.964" y2="92.3614" gradientUnits="userSpaceOnUse">
<stop stop-color="#395036"/>
<stop offset="1" stop-color="#53AB46"/>
</linearGradient>
<linearGradient id="paint1_linear_273_29" x1="14.5444" y1="59.0493" x2="14.5444" y2="88.1381" gradientUnits="userSpaceOnUse">
<stop stop-color="#395036"/>
<stop offset="1" stop-color="#53AB46"/>
</linearGradient>
<linearGradient id="paint2_linear_273_29" x1="34.5196" y1="4.96924" x2="34.5196" y2="65.6461" gradientUnits="userSpaceOnUse">
<stop stop-color="#395036"/>
<stop offset="1" stop-color="#53AB46"/>
</linearGradient>
<linearGradient id="paint3_linear_273_29" x1="89.4636" y1="0" x2="89.4636" y2="67.6013" gradientUnits="userSpaceOnUse">
<stop stop-color="#395036"/>
<stop offset="1" stop-color="#53AB46"/>
</linearGradient>
</defs>
</svg>
